<svg width="160" height="160" viewBox="0 0 160 160" fill="none" xmlns="http://www.w3.org/2000/svg">
  <defs>
    <linearGradient id="ghostBody" x1="0%" y1="0%" x2="0%" y2="100%">
      <stop offset="0%" stop-color="#FFFFFF" stop-opacity="0.95" />
      <stop offset="60%" stop-color="#D7E2FF" stop-opacity="0.9" />
      <stop offset="100%" stop-color="#9CA3AF" stop-opacity="0.8" />
    </linearGradient>
    <radialGradient id="ghostGlow" cx="50%" cy="40%" r="70%">
      <stop offset="0%" stop-color="#FFFFFF" stop-opacity="0.9" />
      <stop offset="40%" stop-color="#E5ECFF" stop-opacity="0.4" />
      <stop offset="100%" stop-color="#020617" stop-opacity="0.9" />
    </radialGradient>
  </defs>
  <rect width="160" height="160" rx="80" fill="#020617" />
  <circle cx="80" cy="75" r="64" fill="url(#ghostGlow)" opacity="0.9" />
  <path
    d="M48 118C50 128 58 136 66 136C74 136 78 130 80 130C82 130 86 136 94 136C102 136 110 128 112 118C114 108 116 96 116 86C116 60 101 40 80 40C59 40 44 60 44 86C44 96 46 108 48 118Z"
    fill="url(#ghostBody)"
  />
  <path
    d="M60 70C60 64.5 63.5 60 68 60C72.5 60 76 64.5 76 70C76 74 73.5 77 68 77C63.5 77 60 74 60 70Z"
    fill="#020617"
  />
  <path
    d="M84 70C84 64.5 87.5 60 92 60C96.5 60 100 64.5 100 70C100 74 97.5 77 92 77C87.5 77 84 74 84 70Z"
    fill="#020617"
  />
  <path
    d="M74 86C74 80 77 76 80 76C83 76 86 80 86 86C86 92 84 98 80 98C76 98 74 92 74 86Z"
    fill="#020617"
  />
  <path
    d="M48 118C54 112 60 114 66 118C72 122 76 124 80 124C84 124 88 122 94 118C100 114 106 112 112 118"
    stroke="rgba(15,23,42,0.45)"
    stroke-width="4"
    stroke-linecap="round"
  />
  <path
    d="M40 54C48 50 56 48 64 48"
    stroke="rgba(148,163,184,0.8)"
    stroke-width="3"
    stroke-linecap="round"
  />
  <path
    d="M96 48C104 48 112 50 120 54"
    stroke="rgba(148,163,184,0.8)"
    stroke-width="3"
    stroke-linecap="round"
  />
</svg>


