<svg width="160" height="160" viewBox="0 0 160 160" fill="none" xmlns="http://www.w3.org/2000/svg">
  <defs>
    <radialGradient id="sky" cx="50%" cy="30%" r="80%">
      <stop offset="0%" stop-color="#1E293B" />
      <stop offset="50%" stop-color="#020617" />
      <stop offset="100%" stop-color="#000000" />
    </radialGradient>
    <radialGradient id="sunCore" cx="50%" cy="50%" r="50%">
      <stop offset="0%" stop-color="#FDBA74" />
      <stop offset="50%" stop-color="#FB923C" />
      <stop offset="100%" stop-color="#C2410C" />
    </radialGradient>
    <linearGradient id="orbitRing" x1="0%" y1="0%" x2="100%" y2="100%">
      <stop offset="0%" stop-color="#A855F7" />
      <stop offset="50%" stop-color="#F97316" />
      <stop offset="100%" stop-color="#22C55E" />
    </linearGradient>
  </defs>
  <rect width="160" height="160" rx="80" fill="url(#sky)" />
  <circle cx="80" cy="80" r="56" stroke="url(#orbitRing)" stroke-width="4" fill="none" />
  <circle cx="80" cy="80" r="26" fill="url(#sunCore)" />
  <circle cx="80" cy="80" r="34" stroke="#FACC15" stroke-width="2" stroke-dasharray="4 6" />
  <g stroke="#FBBF24" stroke-width="2" stroke-linecap="round">
    <path d="M80 38L80 22" />
    <path d="M80 138L80 122" />
    <path d="M38 80L22 80" />
    <path d="M138 80L122 80" />
    <path d="M108 52L118 42" />
    <path d="M52 108L42 118" />
    <path d="M52 52L42 42" />
    <path d="M108 108L118 118" />
  </g>
  <g fill="none" stroke="#E5E7EB" stroke-width="1.6" stroke-linecap="round">
    <path d="M80 18C83 24 86 28 90 30" />
    <path d="M24 60C30 62 34 66 36 72" />
    <path d="M136 60C130 62 126 66 124 72" />
    <path d="M34 106C40 104 46 104 50 106" />
    <path d="M126 106C120 104 114 104 110 106" />
  </g>
  <g fill="#F9FAFB">
    <circle cx="40" cy="36" r="1.4" />
    <circle cx="60" cy="26" r="1.2" />
    <circle cx="120" cy="38" r="1.4" />
    <circle cx="132" cy="64" r="1.2" />
    <circle cx="30" cy="84" r="1.4" />
    <circle cx="44" cy="130" r="1.4" />
    <circle cx="118" cy="126" r="1.4" />
    <circle cx="136" cy="96" r="1.2" />
  </g>
</svg>


